<svg version="1.2" xmlns="http://www.w3.org/2000/svg" viewBox="0 0 595 595" width="595" height="595">
	<title>spider-svgrepo-com-svg</title>
	<style>
		.s0 { fill: #ff0000 } 
	</style>
	<g id="Layer">
		<g id="Layer">
			<path id="Layer" class="s0" d="m594.9 326.5c-0.1 0.5-0.5 0.9-1 0.9q0 0-0.1 0c-15.5-0.4-30.8-1.5-43.6-2.5l-5.5-0.5c-5.3-0.4-10.8-0.8-16.2-1.4q-4-0.4-7.9-0.7c-4.6-0.5-9.2-0.9-13.8-1.4l-21.7-2.5c-4.7-0.5-9.3-1.1-14-1.7q-3.8-0.5-7.6-1q-3.3-0.5-6.6-0.9c-4.9-0.6-10-1.2-15-2l-20.8-3c-6.7 0.7-13.6 1.3-20.5 1.9q-5.8 0.5-11.5 1c-7.1 0.6-14.4 1.1-21.4 1.7q-5.9 0.4-11.7 0.8q-4.8 0.3-9.6 0.6c-7.7 0.5-15.6 1-23.4 1.3c5.8 3.4 11.6 6.8 17.2 10.2q4.2 2.5 8.3 4.9q5.2 3.2 10.4 6.4c6 3.6 12.3 7.4 18.3 11.3q5.1 3.2 10.1 6.3c6 3.8 12.3 7.7 18.3 11.7l1 0.6q0.1 0.1 0.3 0.3l14.7 21.2c3.2 4.5 6.4 9.2 9.4 13.8q2.2 3.2 4.4 6.5q2.4 3.6 4.8 7.1c3 4.4 6 8.8 8.9 13.3l13.4 20.5c2.9 4.4 5.7 8.9 8.5 13.4q2.4 3.7 4.7 7.4c3.3 5 6.5 10.3 9.6 15.3l3.4 5.5c7.6 12.5 16.6 27.3 25 42.6c0.2 0.4 0.1 1-0.4 1.3c-0.4 0.3-1 0.2-1.3-0.2c-11.3-13.4-21.8-27-30.6-38.6l-4-5.2c-3.6-4.7-7.3-9.6-10.8-14.5q-2.6-3.5-5.2-7c-3.2-4.2-6.3-8.5-9.4-12.8l-14.3-19.9c-3-4.3-6-8.6-9-12.9q-2.5-3.6-5.1-7.3q-2.2-3.2-4.5-6.5c-3.1-4.5-6.3-9.1-9.4-13.7l-13-19.3c-5.7-3.8-11.3-7.7-16.9-11.6q-4.8-3.3-9.7-6.6c-5.9-4.2-11.9-8.4-17.7-12.6q-4.9-3.5-9.7-6.9l-7.2-5.3l4.7 5.6c5.6 6.5 11.4 13.3 16.9 20.1l10.8 12.9l12.3 15.2c0.2 0.2 0.2 0.6 0.2 0.8l-4.9 25l-4.6 22.1c-2 10.2-4.4 20.6-6.6 30.7q-1.5 6.7-3 13.3l-5.3 22c-1.1 4.7-2.3 9.4-3.5 14.1q-1 3.9-2 7.8c-1.2 4.9-2.5 9.9-3.9 14.8q-0.9 3.5-1.9 7c-2.4 8.6-4.4 15.5-6.3 21.8c-0.2 0.4-0.6 0.7-1 0.7q-0.1 0-0.2 0c-0.5-0.1-0.9-0.6-0.8-1.1c0.6-6.6 1.4-13.5 2.5-22.5q0.5-3.8 1-7.6c0.7-4.9 1.3-9.9 2.1-14.8q0.6-3.9 1.1-7.9c0.7-4.8 1.5-9.6 2.3-14.5l3.6-22.2q1.2-6.9 2.4-13.7c1.8-10.1 3.6-20.5 5.7-30.7l4.2-22.2l4-18.9l-8.3-10.6l-10.1-13.4c-5.4-7-10.7-14.3-15.8-21.3l-4.2-5.7q-1.3-1.7-2.5-3.4q0.6 3.9 0.6 7.8c0 22-13.5 39.8-30 39.8c-16.6 0-30.1-17.8-30.1-39.8q0-0.1 0-0.2l-0.9 1.2c-5.2 7.1-10.6 14.5-16 21.6l-10.1 13.4l-8.3 10.6l4 18.9l4.2 22.2c2.1 10.2 3.9 20.6 5.7 30.7q1.2 6.8 2.4 13.7l3.6 22.2c0.8 4.9 1.6 9.7 2.3 14.5q0.5 3.9 1.1 7.9c0.8 4.9 1.4 9.9 2.1 14.8q0.5 3.8 1 7.6c1.1 8.8 1.9 16 2.5 22.5c0.1 0.5-0.3 1-0.8 1.1c-0.5 0.1-1-0.2-1.2-0.7c-1.9-6.3-3.9-13.2-6.3-21.7q-1-3.6-1.9-7.1c-1.4-4.9-2.7-9.9-3.9-14.8q-1-3.9-2-7.8c-1.2-4.7-2.4-9.4-3.5-14.1l-5.3-21.9q-1.5-6.7-3-13.4c-2.2-10.1-4.6-20.5-6.6-30.7l-4.6-22.1l-4.9-25c0-0.3 0-0.6 0.2-0.8l12.3-15.2l10.8-12.9c5.5-6.8 11.3-13.6 16.9-20.1l4.7-5.6l-7.2 5.3q-4.9 3.4-9.7 6.9c-5.8 4.2-11.8 8.4-17.7 12.6q-4.9 3.3-9.7 6.6c-5.6 3.9-11.2 7.8-16.9 11.6l-13 19.3c-3.1 4.6-6.3 9.2-9.4 13.7q-2.3 3.3-4.5 6.5q-2.6 3.6-5.1 7.3c-3 4.3-6 8.6-9 12.9l-14.3 19.9c-3.1 4.3-6.3 8.6-9.4 12.8q-2.6 3.5-5.2 7c-3.5 4.9-7.2 9.8-10.8 14.5l-4 5.2c-8.8 11.6-19.3 25.2-30.6 38.6c-0.3 0.4-0.9 0.5-1.3 0.2c-0.5-0.3-0.6-0.9-0.4-1.3c8.4-15.3 17.4-30.1 25-42.6l3.4-5.5c3.1-5 6.3-10.3 9.6-15.3q2.3-3.7 4.7-7.4c2.8-4.5 5.6-9 8.5-13.4l13.4-20.5c2.9-4.5 5.9-8.9 8.9-13.3q2.4-3.5 4.8-7.1q2.2-3.3 4.4-6.5c3-4.6 6.2-9.3 9.4-13.8l14.7-21.2q0.1-0.2 0.3-0.3l1-0.6c6-4 12.3-7.9 18.3-11.7q5-3.1 10.1-6.3c6-3.9 12.3-7.7 18.3-11.3q5.2-3.2 10.4-6.4q4.1-2.4 8.2-4.9c5.7-3.4 11.5-6.8 17.3-10.2c-7.8-0.3-15.7-0.8-23.4-1.3q-4.8-0.3-9.6-0.6q-5.8-0.4-11.7-0.8c-7-0.6-14.3-1.1-21.4-1.7q-5.7-0.5-11.5-1c-6.9-0.6-13.8-1.2-20.7-1.9l-20.6 3c-5 0.7-10.1 1.4-15 2q-3.3 0.4-6.6 0.9q-3.8 0.5-7.6 1c-4.7 0.6-9.3 1.2-14 1.7l-21.7 2.4c-4.6 0.6-9.2 1-13.8 1.5q-3.9 0.3-7.9 0.7c-5.4 0.6-10.9 1-16.2 1.4l-5.5 0.5c-12.9 1-28.1 2.1-43.7 2.5q0 0 0 0c-0.5 0-0.9-0.4-1-0.9c-0.1-0.5 0.3-1 0.8-1.1c15.1-3.8 30-6.9 42.7-9.4l5.4-1c5.3-1 10.7-2.1 16-3q3.8-0.7 7.7-1.4c4.6-0.8 9.2-1.6 13.8-2.4l21.5-3.4c4.6-0.8 9.2-1.4 13.9-2.1q3.8-0.5 7.6-1.1q3.3-0.5 6.6-1c4.9-0.7 10-1.4 15-2l22.4-2.9h0.9c7 0.9 14.2 1.8 21.1 2.7q5.9 0.8 11.8 1.6c7.1 0.9 14.3 2 21.3 3q5.8 0.8 11.6 1.7q4.7 0.7 9.4 1.5c7.6 1.2 15.6 2.4 23.4 3.8q3 0.5 6.1 1.1l1.9 0.3l0.9-0.9q-1.6-2-2.9-4.6q-8.9-6.2-17.9-12.6l-7.7-5.4q-5.6-4.1-11.1-8.1c-6.6-4.8-13.3-9.6-19.9-14.5q-5.4-4.1-10.8-8.1c-6.6-4.9-13.3-9.9-19.9-14.9l-0.9-0.7q-0.1-0.1-0.3-0.3l-14.8-25.2c-3.2-5.4-6.4-11.1-9.5-16.5q-2.2-3.9-4.5-7.7q-2.4-4.3-4.9-8.6c-3-5.2-6-10.5-8.9-15.8l-13.6-24.4l-13.4-24.6c-3.3-6-6.5-12.2-9.6-18.2l-3.5-6.6c-7.7-14.7-16.6-32.1-25.1-50.2c-0.3-0.5-0.1-1 0.4-1.3c0.4-0.3 1-0.1 1.3 0.3c11.5 16.4 22.2 32.8 31.1 46.7l3.9 6.1c3.7 5.7 7.5 11.7 11.1 17.6l14.8 23.8l14.5 23.9c3.1 5.2 6.2 10.4 9.2 15.6q2.5 4.3 5.1 8.5q2.3 4 4.6 8c3.2 5.3 6.4 10.7 9.5 16.2l13.2 23.1c6.2 4.9 12.4 9.8 18.3 14.6q5.3 4.3 10.6 8.5c6.4 5.1 12.8 10.4 19 15.6q5.3 4.4 10.6 8.7l7.5 6.4q-0.6-0.7-1.2-1.5c-3.4-3.6-6.7-7.4-10-11.1l-4.6-5.3c-2.6-2.9-5.2-5.8-7.7-8.8l-4.6-5.4c-5.6-6.6-11.5-13.4-17.1-20.3l-10.7-12.9l-12.3-15.2c-0.2-0.3-0.3-0.6-0.2-0.9l4.8-24.9l4.6-22.1c2.1-10.3 4.4-20.7 6.7-30.8q1.5-6.6 3-13.3l5.2-21.9c1.1-4.7 2.3-9.5 3.5-14.2q1-3.8 2-7.7c1.3-4.9 2.6-9.8 3.9-14.7q1-3.6 1.9-7.2c2.4-8.5 4.5-15.5 6.4-21.7c0.1-0.5 0.7-0.8 1.2-0.7c0.5 0.1 0.8 0.6 0.8 1.1c-0.7 6.5-1.5 13.7-2.6 22.5q-0.5 3.8-1 7.5c-0.6 5-1.3 10-2 14.9q-0.6 3.9-1.2 7.9c-0.7 4.8-1.4 9.6-2.2 14.4l-3.6 22.3q-1.3 6.9-2.5 13.7c-1.7 10.1-3.6 20.5-5.6 30.7l-4.3 22.1l-3.9 19l8.2 10.6l10.2 13.4c5.3 7 10.5 14.2 15.6 21.1l4.4 5.9c2.3 3.1 4.5 6.3 6.8 9.4l4.2 6.1c2.9 3.9 5.7 7.9 8.5 12q3 4.3 5.9 8.7c2.7-8.2 9.5-13.7 17.1-13.7c9.6 0 17.5 8.5 18.3 19.4c3.4-5.1 6.6-9.9 9.8-14.4c2.8-4.2 5.7-8.2 8.6-12.3l4-5.6c2.3-3.2 4.6-6.4 6.9-9.6l4.3-5.9c5.1-6.9 10.4-14.1 15.7-21.1l10.1-13.4l8.3-10.6l-3.9-18.9l-4.3-22.2c-2.1-10.2-3.9-20.6-5.7-30.7q-1.2-6.8-2.4-13.7l-3.6-22.3c-0.8-4.8-1.5-9.6-2.2-14.4q-0.6-4-1.2-7.9c-0.8-4.9-1.4-9.9-2.1-14.8q-0.5-3.8-1-7.6c-1.1-8.8-1.9-16-2.5-22.5c-0.1-0.5 0.3-1 0.8-1.1c0.5-0.1 1 0.2 1.2 0.7c1.9 6.2 3.9 13.2 6.3 21.7q1 3.6 2 7.2c1.3 4.9 2.6 9.8 3.8 14.7q1 3.9 2 7.7c1.2 4.8 2.4 9.5 3.5 14.2l5.3 21.9q1.5 6.7 3 13.4c2.2 10 4.6 20.4 6.7 30.7l4.6 22.1l4.8 24.9c0 0.3 0 0.6-0.2 0.9l-12.3 15.2l-10.7 12.9c-5.6 6.9-11.5 13.7-17.2 20.3l-4.5 5.4c-2.6 3-5.1 5.9-7.7 8.8l-4.7 5.3c-3.2 3.8-6.5 7.5-9.9 11.2q-0.6 0.7-1.3 1.4q0.5-0.4 1-0.8l6.5-5.5q5.3-4.4 10.6-8.8c6.2-5.1 12.7-10.4 19.1-15.6q5.2-4.2 10.4-8.4c6-4.8 12.2-9.8 18.4-14.7l13.3-23.1c3.1-5.5 6.3-10.9 9.4-16.2q2.4-4 4.7-8q2.5-4.2 5-8.5c3.1-5.2 6.1-10.4 9.3-15.6l14.5-23.9l14.7-23.8c3.7-5.9 7.5-11.9 11.2-17.6l3.8-6.1c9-13.9 19.7-30.4 31.2-46.7c0.3-0.4 0.8-0.6 1.3-0.3c0.5 0.3 0.6 0.8 0.4 1.3c-8.5 18.1-17.5 35.5-25.1 50.2l-3.5 6.6c-3.1 6-6.4 12.2-9.6 18.2l-13.4 24.6l-13.6 24.4c-2.9 5.3-5.9 10.5-8.9 15.7q-2.5 4.3-5 8.7q-2.2 3.9-4.4 7.8c-3.1 5.4-6.3 11-9.6 16.4l-14.8 25.2q-0.1 0.1-0.2 0.3l-0.9 0.7c-6.6 5-13.4 10-19.9 14.9q-5.4 4-10.9 8.1c-6.5 4.9-13.3 9.7-19.8 14.5q-5.6 4-11.2 8.1q-4.4 3.1-8.8 6.2c-6.8 4.9-13.9 9.9-21 14.8l1.5 1.7q0.4 0.3 0.7 0.7l0.1 0.1l1.8-0.3q3.1-0.6 6.2-1.1c7.8-1.4 15.7-2.6 23.4-3.8q4.7-0.8 9.4-1.5q5.8-0.9 11.5-1.7c7-1 14.2-2.1 21.4-3q5.9-0.8 11.8-1.6c6.9-0.9 14-1.9 21.1-2.7h0.7l1 0.1l21.6 2.7c5 0.7 10.1 1.4 15 2.1q3.3 0.5 6.5 1q3.9 0.5 7.7 1.1c4.6 0.6 9.3 1.3 13.9 2.1l21.5 3.4c4.6 0.8 9.2 1.6 13.8 2.4q3.8 0.7 7.7 1.4c5.3 0.9 10.7 2 16 3l5.4 1c12.6 2.5 27.6 5.6 42.7 9.4c0.5 0.1 0.8 0.6 0.8 1.1z" />
		</g>
	</g>
</svg>